<?xml version="1.0" encoding="UTF-8"?>
<svg width="805px" height="805px" viewBox="0 0 805 805" version="1.1" xmlns="http://www.w3.org/2000/svg" xmlns:xlink="http://www.w3.org/1999/xlink">
    <!-- Generator: Sketch 62 (91390) - https://sketch.com -->
    <title>Group</title>
    <desc>Created with Sketch.</desc>
    <g id="Page-1" stroke="none" strokeWidth="1" fill="none" fill-rule="evenodd">
        <g id="Group" fill-rule="nonzero">
            <circle id="Oval" fill="#FF4500" cx="402.6" cy="402.6" r="402.3"></circle>
            <path d="M670.9,402.6 C669.7,370.2 642.5,344.9 610,346 C595.6,346.5 581.9,352.4 571.5,362.3 C525.7,331.1 471.9,314 416.6,312.8 L442.7,187.3 L528.8,205.4 C531.2,227.5 551,243.5 573.1,241.1 C595.2,238.7 611.2,218.9 608.8,196.8 C606.4,174.7 586.6,158.7 564.5,161.1 C551.8,162.4 540.4,169.8 534.1,180.8 L435.5,161.1 C428.8,159.6 422.1,163.8 420.6,170.6 C420.6,170.7 420.6,170.7 420.6,170.8 L390.9,310.4 C334.9,311.3 280.4,328.5 234,359.9 C210.4,337.7 173.2,338.8 151,362.5 C128.8,386.1 129.9,423.3 153.6,445.5 C158.2,449.8 163.5,453.5 169.4,456.1 C169,462 169,467.9 169.4,473.8 C169.4,563.9 274.4,637.2 403.9,637.2 C533.4,637.2 638.4,564 638.4,473.8 C638.8,467.9 638.8,462 638.4,456.1 C658.6,446 671.3,425.2 670.9,402.6 Z M268.6,442.9 C268.6,420.7 286.7,402.6 308.9,402.6 C331.1,402.6 349.2,420.7 349.2,442.9 C349.2,465.1 331.1,483.2 308.9,483.2 C286.6,483 268.6,465.1 268.6,442.9 Z M502.3,553.5 C473.7,575 438.7,586 402.9,584.5 C367.1,586 332.1,575 303.5,553.5 C299.7,548.9 300.4,542 305,538.2 C309,534.9 314.7,534.9 318.8,538.2 C343,555.9 372.5,564.9 402.5,563.5 C432.5,565.1 462.1,556.5 486.6,539 C491,534.7 498.2,534.8 502.5,539.2 C506.8,543.6 506.7,550.8 502.3,555.1 L502.3,555.1 L502.3,553.5 L502.3,553.5 Z M495.1,484.6 C472.9,484.6 454.8,466.5 454.8,444.3 C454.8,422.1 472.9,404 495.1,404 C517.3,404 535.4,422.1 535.4,444.3 C536.3,466.5 519,485.2 496.8,486.1 C496.1,486.1 495.5,486.1 494.8,486.1 L495.1,484.6 Z" id="Shape" fill="#FFFFFF"></path>
        </g>
    </g>
</svg>