<?xml version="1.0" encoding="UTF-8"?>
<svg width="229px" height="30px" viewBox="0 0 229 30" version="1.1" xmlns="http://www.w3.org/2000/svg" xmlns:xlink="http://www.w3.org/1999/xlink">
    <!-- Generator: Sketch 62 (91390) - https://sketch.com -->
    <title>Group</title>
    <desc>Created with Sketch.</desc>
    <defs>
        <path d="M48.6730469,29 L48.6730469,17.6914062 L52.3058594,17.6914062 L52.3058594,13.7070312 L48.6730469,13.7070312 L48.6730469,12.8574219 C48.6730469,11.6367188 49.3419922,11.0263672 50.6798828,11.0263672 C51.3927734,11.0263672 52.0324219,11.2070312 52.5988281,11.5683594 L52.5988281,11.5683594 L52.5988281,7.70117188 C51.7589844,7.26171875 50.7921875,7.04199219 49.6984375,7.04199219 C47.8917969,7.04199219 46.5392578,7.53759766 45.6408203,8.52880859 C44.7423828,9.52001953 44.2931641,10.8652344 44.2931641,12.5644531 L44.2931641,12.5644531 L44.2931641,13.7070312 L41.9787109,13.7070312 L41.9787109,17.6914062 L44.2931641,17.6914062 L44.2931641,29 L48.6730469,29 Z M61.2757812,29.3662109 C62.8285156,29.3662109 64.2347656,29.0170898 65.4945312,28.3188477 C66.7542969,27.6206055 67.740625,26.6586914 68.4535156,25.4331055 C69.1664062,24.2075195 69.5228516,22.8476562 69.5228516,21.3535156 C69.5228516,19.859375 69.1664062,18.4995117 68.4535156,17.2739258 C67.740625,16.0483398 66.7542969,15.0864258 65.4945312,14.3881836 C64.2347656,13.6899414 62.8285156,13.3408203 61.2757812,13.3408203 C58.9222656,13.3408203 56.9569336,14.1074219 55.3797852,15.640625 C53.8026367,17.1738281 53.0140625,19.078125 53.0140625,21.3535156 C53.0140625,23.6289062 53.8026367,25.5332031 55.3797852,27.0664062 C56.9569336,28.5996094 58.9222656,29.3662109 61.2757812,29.3662109 Z M61.2757812,25.1328125 C60.2015625,25.1328125 59.3080078,24.7714844 58.5951172,24.0488281 C57.8822266,23.3261719 57.5257812,22.4277344 57.5257812,21.3535156 C57.5257812,20.2792969 57.8822266,19.3808594 58.5951172,18.6582031 C59.3080078,17.9355469 60.2015625,17.5742188 61.2757812,17.5742188 C62.35,17.5742188 63.2435547,17.9355469 63.9564453,18.6582031 C64.6693359,19.3808594 65.0257812,20.2792969 65.0257812,21.3535156 C65.0257812,22.4277344 64.6693359,23.3261719 63.9564453,24.0488281 C63.2435547,24.7714844 62.35,25.1328125 61.2757812,25.1328125 Z M78.8589844,29.3662109 C81.0464844,29.3662109 82.7969727,28.7729492 84.1104492,27.5864258 C85.4239258,26.3999023 86.0806641,24.8300781 86.0806641,22.8769531 L86.0806641,22.8769531 L86.0806641,13.7070312 L81.7007812,13.7070312 L81.7007812,22.2763672 C81.7007812,23.1357422 81.4419922,23.8266602 80.9244141,24.3491211 C80.4068359,24.871582 79.7183594,25.1328125 78.8589844,25.1328125 C77.9996094,25.1328125 77.3086914,24.871582 76.7862305,24.3491211 C76.2637695,23.8266602 76.0025391,23.1357422 76.0025391,22.2763672 L76.0025391,22.2763672 L76.0025391,13.7070312 L71.6226562,13.7070312 L71.6226562,22.8769531 C71.6226562,24.8300781 72.2842773,26.3999023 73.6075195,27.5864258 C74.9307617,28.7729492 76.68125,29.3662109 78.8589844,29.3662109 Z M93.4978516,29 L93.4978516,20.6943359 C93.4978516,19.7568359 93.7883789,19.0024414 94.3694336,18.4311523 C94.9504883,17.8598633 95.7097656,17.5742188 96.6472656,17.5742188 C97.5457031,17.5742188 98.265918,17.8525391 98.8079102,18.4091797 C99.3499023,18.9658203 99.6208984,19.7080078 99.6208984,20.6357422 L99.6208984,20.6357422 L99.6208984,29 L104.000781,29 L104.000781,19.15625 C104.000781,17.3984375 103.463672,15.9897461 102.389453,14.9301758 C101.315234,13.8706055 99.8992187,13.3408203 98.1414062,13.3408203 C96.2761719,13.3408203 94.7283203,13.9707031 93.4978516,15.2304688 L93.4978516,15.2304688 L93.4978516,13.7070312 L89.1179687,13.7070312 L89.1179687,29 L93.4978516,29 Z M113.527344,29.3662109 C115.382812,29.3662109 116.925781,28.7363281 118.15625,27.4765625 L118.15625,27.4765625 L118.15625,29 L122.536133,29 L122.536133,7.39355469 L118.15625,7.39355469 L118.15625,15.2304688 C116.925781,13.9707031 115.382812,13.3408203 113.527344,13.3408203 C111.427734,13.3408203 109.672363,14.1074219 108.26123,15.640625 C106.850098,17.1738281 106.144531,19.078125 106.144531,21.3535156 C106.144531,23.6289062 106.850098,25.5332031 108.26123,27.0664062 C109.672363,28.5996094 111.427734,29.3662109 113.527344,29.3662109 Z M114.40625,25.1328125 C113.341797,25.1328125 112.455566,24.7714844 111.747559,24.0488281 C111.039551,23.3261719 110.685547,22.4277344 110.685547,21.3535156 C110.685547,20.2792969 111.039551,19.3808594 111.747559,18.6582031 C112.455566,17.9355469 113.341797,17.5742188 114.40625,17.5742188 C115.480469,17.5742188 116.374023,17.9355469 117.086914,18.6582031 C117.799805,19.3808594 118.15625,20.2792969 118.15625,21.3535156 C118.15625,22.4277344 117.799805,23.3261719 117.086914,24.0488281 C116.374023,24.7714844 115.480469,25.1328125 114.40625,25.1328125 Z M133.425,29.3662109 C134.811719,29.3662109 136.100781,29.1049805 137.292187,28.5825195 C138.483594,28.0600586 139.494336,27.3300781 140.324414,26.3925781 L140.324414,26.3925781 L137.380078,23.84375 C136.989453,24.3320312 136.457227,24.7373047 135.783398,25.0595703 C135.10957,25.3818359 134.3625,25.5429688 133.542187,25.5429688 C132.585156,25.5429688 131.759961,25.2988281 131.066602,24.8105469 C130.373242,24.3222656 129.889844,23.6484375 129.616406,22.7890625 L129.616406,22.7890625 L141.012891,22.7890625 C141.071484,22.3984375 141.100781,21.9394531 141.100781,21.4121094 C141.100781,19.0976562 140.33418,17.1738281 138.800977,15.640625 C137.267773,14.1074219 135.353711,13.3408203 133.058789,13.3408203 C131.535352,13.3408203 130.148633,13.6875 128.898633,14.3808594 C127.648633,15.0742188 126.669629,16.0263672 125.961621,17.2373047 C125.253613,18.4482422 124.899609,19.7910156 124.899609,21.265625 C124.899609,23.5703125 125.712598,25.496582 127.338574,27.0444336 C128.964551,28.5922852 130.993359,29.3662109 133.425,29.3662109 Z M136.457227,19.8740234 L129.587109,19.8740234 C129.811719,19.0244141 130.231641,18.3530273 130.846875,17.8598633 C131.462109,17.3666992 132.179883,17.1201172 133.000195,17.1201172 C133.830273,17.1201172 134.55293,17.3642578 135.168164,17.8525391 C135.783398,18.3408203 136.213086,19.0146484 136.457227,19.8740234 L136.457227,19.8740234 Z M147.800195,29 L147.800195,21.8662109 C147.800195,20.6650391 148.159082,19.7128906 148.876855,19.0097656 C149.594629,18.3066406 150.612695,17.9550781 151.931055,17.9550781 L151.931055,17.9550781 L152.590234,17.9550781 L152.590234,13.4580078 L151.931055,13.4580078 C150.309961,13.4580078 148.933008,14.1171875 147.800195,15.4355469 L147.800195,15.4355469 L147.800195,13.7070312 L143.420312,13.7070312 L143.420312,29 L147.800195,29 Z M167.644336,29.3662109 C168.72832,29.3662109 169.704883,29.1464844 170.574023,28.7070312 L170.574023,28.7070312 L170.574023,24.5908203 C169.870898,24.9521484 169.201953,25.1328125 168.567187,25.1328125 C167.287891,25.1328125 166.648242,24.5224609 166.648242,23.3017578 L166.648242,23.3017578 L166.648242,17.6914062 L170.574023,17.6914062 L170.574023,13.7070312 L166.648242,13.7070312 L166.648242,9.91308594 L162.268359,9.91308594 L162.268359,13.7070312 L159.953906,13.7070312 L159.953906,17.6914062 L162.268359,17.6914062 L162.268359,24.0195312 C162.268359,25.6601562 162.715137,26.9614258 163.608691,27.9233398 C164.502246,28.8852539 165.847461,29.3662109 167.644336,29.3662109 Z M180.027344,29.3662109 C181.580078,29.3662109 182.986328,29.0170898 184.246094,28.3188477 C185.505859,27.6206055 186.492187,26.6586914 187.205078,25.4331055 C187.917969,24.2075195 188.274414,22.8476562 188.274414,21.3535156 C188.274414,19.859375 187.917969,18.4995117 187.205078,17.2739258 C186.492187,16.0483398 185.505859,15.0864258 184.246094,14.3881836 C182.986328,13.6899414 181.580078,13.3408203 180.027344,13.3408203 C177.673828,13.3408203 175.708496,14.1074219 174.131348,15.640625 C172.554199,17.1738281 171.765625,19.078125 171.765625,21.3535156 C171.765625,23.6289062 172.554199,25.5332031 174.131348,27.0664062 C175.708496,28.5996094 177.673828,29.3662109 180.027344,29.3662109 Z M180.027344,25.1328125 C178.953125,25.1328125 178.05957,24.7714844 177.34668,24.0488281 C176.633789,23.3261719 176.277344,22.4277344 176.277344,21.3535156 C176.277344,20.2792969 176.633789,19.3808594 177.34668,18.6582031 C178.05957,17.9355469 178.953125,17.5742188 180.027344,17.5742188 C181.101562,17.5742188 181.995117,17.9355469 182.708008,18.6582031 C183.420898,19.3808594 183.777344,20.2792969 183.777344,21.3535156 C183.777344,22.4277344 183.420898,23.3261719 182.708008,24.0488281 C181.995117,24.7714844 181.101562,25.1328125 180.027344,25.1328125 Z M198.006055,29.3662109 C199.558789,29.3662109 200.965039,29.0170898 202.224805,28.3188477 C203.48457,27.6206055 204.470898,26.6586914 205.183789,25.4331055 C205.89668,24.2075195 206.253125,22.8476562 206.253125,21.3535156 C206.253125,19.859375 205.89668,18.4995117 205.183789,17.2739258 C204.470898,16.0483398 203.48457,15.0864258 202.224805,14.3881836 C200.965039,13.6899414 199.558789,13.3408203 198.006055,13.3408203 C195.652539,13.3408203 193.687207,14.1074219 192.110059,15.640625 C190.53291,17.1738281 189.744336,19.078125 189.744336,21.3535156 C189.744336,23.6289062 190.53291,25.5332031 192.110059,27.0664062 C193.687207,28.5996094 195.652539,29.3662109 198.006055,29.3662109 Z M198.006055,25.1328125 C196.931836,25.1328125 196.038281,24.7714844 195.325391,24.0488281 C194.6125,23.3261719 194.256055,22.4277344 194.256055,21.3535156 C194.256055,20.2792969 194.6125,19.3808594 195.325391,18.6582031 C196.038281,17.9355469 196.931836,17.5742188 198.006055,17.5742188 C199.080273,17.5742188 199.973828,17.9355469 200.686719,18.6582031 C201.399609,19.3808594 201.756055,20.2792969 201.756055,21.3535156 C201.756055,22.4277344 201.399609,23.3261719 200.686719,24.0488281 C199.973828,24.7714844 199.080273,25.1328125 198.006055,25.1328125 Z M213.011133,29 L213.011133,7.39355469 L208.63125,7.39355469 L208.63125,29 L213.011133,29 Z M221.673437,29.3662109 C223.607031,29.3662109 225.20127,28.9145508 226.456152,28.0112305 C227.711035,27.1079102 228.338477,25.8457031 228.338477,24.2246094 C228.338477,23.7851562 228.294531,23.3798828 228.206641,23.0087891 C228.11875,22.6376953 227.97959,22.3105469 227.78916,22.0273438 C227.59873,21.7441406 227.400977,21.4902344 227.195898,21.265625 C226.99082,21.0410156 226.727148,20.8408203 226.404883,20.6650391 C226.082617,20.4892578 225.796973,20.340332 225.547949,20.2182617 C225.298926,20.0961914 224.97666,19.9790039 224.581152,19.8666992 C224.185645,19.7543945 223.870703,19.6713867 223.636328,19.6176758 C223.401953,19.5639648 223.089453,19.4931641 222.698828,19.4052734 C222.317969,19.3173828 222.020117,19.2490234 221.805273,19.2001953 C221.59043,19.1513672 221.34873,19.0805664 221.080176,18.987793 C220.811621,18.8950195 220.608984,18.8046875 220.472266,18.7167969 C220.335547,18.6289062 220.218359,18.5166016 220.120703,18.3798828 C220.023047,18.2431641 219.974219,18.0917969 219.974219,17.9257812 C219.974219,17.5546875 220.171973,17.2788086 220.56748,17.0981445 C220.962988,16.9174805 221.473242,16.8271484 222.098242,16.8271484 C223.377539,16.8271484 224.676367,17.2763672 225.994727,18.1748047 L225.994727,18.1748047 L228.045508,15.3476562 C226.229102,14.0097656 224.197852,13.3408203 221.951758,13.3408203 C220.760352,13.3408203 219.693457,13.5166016 218.751074,13.8681641 C217.808691,14.2197266 217.046973,14.7739258 216.465918,15.5307617 C215.884863,16.2875977 215.594336,17.1982422 215.594336,18.2626953 C215.594336,18.6533203 215.63584,19.0195312 215.718848,19.3613281 C215.801855,19.703125 215.901953,20.003418 216.019141,20.262207 C216.136328,20.5209961 216.304785,20.7675781 216.524512,21.0019531 C216.744238,21.2363281 216.949316,21.434082 217.139746,21.5952148 C217.330176,21.7563477 217.581641,21.9125977 217.894141,22.0639648 C218.206641,22.215332 218.470312,22.3349609 218.685156,22.4228516 C218.9,22.5107422 219.188086,22.605957 219.549414,22.7084961 C219.910742,22.8110352 220.191504,22.8867188 220.391699,22.9355469 C220.591895,22.984375 220.872656,23.0478516 221.233984,23.1259766 C221.722266,23.2431641 222.090918,23.3359375 222.339941,23.4042969 C222.588965,23.4726562 222.859961,23.5678711 223.15293,23.6899414 C223.445898,23.8120117 223.653418,23.9511719 223.775488,24.1074219 C223.897559,24.2636719 223.958594,24.4443359 223.958594,24.6494141 C223.958594,25.0400391 223.736426,25.3427734 223.29209,25.5576172 C222.847754,25.7724609 222.259375,25.8798828 221.526953,25.8798828 C219.905859,25.8798828 218.445898,25.328125 217.14707,24.2246094 L217.14707,24.2246094 L215.110937,27.0517578 C216.985937,28.5947266 219.173437,29.3662109 221.673437,29.3662109 Z" id="path-1"></path>
    </defs>
    <g id="Page-1" stroke="none" stroke-width="1" fill="none" fill-rule="evenodd">
        <g id="Group" transform="translate(0.000000, -3.000000)" fill-rule="nonzero">
            <g id="foundertools">
                <use fill="#FFFFFF" xlink:href="#path-1"></use>
                <use fill="#000000" xlink:href="#path-1"></use>
            </g>
            <g id="icon" transform="translate(0.000000, 3.000000)" fill="#000000">
                <path d="M14.9511628,0.223255814 C14.719738,0.235851622 14.5028456,0.34004981 14.3483809,0.512840859 C14.1939162,0.685631909 14.1145855,0.912801872 14.127907,1.14418605 L14.7034884,11.6372093 C14.7034884,11.8009682 14.8362411,11.9337209 15,11.9337209 C15.1637589,11.9337209 15.2965116,11.8009682 15.2965116,11.6372093 L15.872093,1.14418605 C15.8738386,1.11281496 15.8738386,1.08137109 15.872093,1.05 C15.8439652,0.568410552 15.4329859,0.199463182 14.9511628,0.223255814 Z" id="Path"></path>
                <path d="M8.82906977,2.56395349 L8.78023256,2.48023256 C8.50350201,2.11295884 7.98913969,2.02367337 7.60482139,2.27619906 C7.22050309,2.52872475 7.0983071,3.03627636 7.3255814,3.43604651 L13.0639535,12.2372093 C13.1458462,12.3636624 13.3102817,12.4074112 13.444186,12.3383721 C13.5905594,12.2651221 13.6498929,12.0871217 13.5767442,11.9406977 L8.82906977,2.56395349 Z" id="Path"></path>
                <path d="M2.56395349,8.82906977 L11.9406977,13.5767442 C12.081323,13.6493224 12.2541598,13.5986775 12.3333754,13.4616812 C12.4125909,13.3246849 12.3702635,13.1496254 12.2372093,13.0639535 L3.43604651,7.3255814 C3.40985359,7.30652723 3.38180448,7.29016525 3.35232558,7.27674419 C3.07378305,7.13591508 2.7412677,7.15438428 2.48003485,7.32519464 C2.21880199,7.49600499 2.06853912,7.79320634 2.0858488,8.1048458 C2.10315848,8.41648526 2.28541096,8.6952174 2.56395349,8.83604651 L2.56395349,8.82906977 Z" id="Path"></path>
                <path d="M11.9197674,15.0174419 C11.9258014,14.8536641 11.8007156,14.7146799 11.6372093,14.7034884 L1.14418605,14.127907 L1.04651163,14.127907 C0.564867951,14.1539157 0.195502869,14.5654493 0.221511628,15.047093 C0.247520386,15.5287367 0.659053997,15.8981018 1.14069767,15.872093 L11.6337209,15.2965116 C11.7855031,15.2882505 11.9077617,15.1689738 11.9197674,15.0174419 L11.9197674,15.0174419 Z" id="Path"></path>
                <path d="M12.3383721,16.555814 C12.2651221,16.4094406 12.0871217,16.3501071 11.9406977,16.4232558 L2.56395349,21.1709302 L2.48023256,21.2197674 C2.11295884,21.496498 2.02367337,22.0108603 2.27619906,22.3951786 C2.52872475,22.7794969 3.03627636,22.9016929 3.43604651,22.6744186 L12.2372093,16.9360465 C12.3636624,16.8541538 12.4074112,16.6897183 12.3383721,16.555814 L12.3383721,16.555814 Z" id="Path"></path>
                <path d="M13.472093,17.6755814 C13.335157,17.5877744 13.1530454,17.6266871 13.0639535,17.7627907 L7.3255814,26.5639535 C7.30652723,26.5901464 7.29016525,26.6181955 7.27674419,26.6476744 C7.05904127,27.0782639 7.23161988,27.6038087 7.66220932,27.8215116 C8.09279875,28.0392145 8.61834356,27.8666359 8.83604651,27.4360465 L13.5767442,18.0593023 C13.6438457,17.9233282 13.5989365,17.7586614 13.472093,17.6755814 L13.472093,17.6755814 Z" id="Path"></path>
                <path d="M15.0174419,18.0802326 C14.8536641,18.0741986 14.7146799,18.1992844 14.7034884,18.3627907 L14.127907,28.855814 C14.1261614,28.887185 14.1261614,28.9186289 14.127907,28.95 C14.1539157,29.4316437 14.5654493,29.8010088 15.047093,29.775 C15.5287367,29.7489912 15.8981018,29.3374576 15.872093,28.855814 L15.2965116,18.3627907 C15.2865775,18.2123654 15.1677322,18.0920344 15.0174419,18.0802326 Z" id="Path"></path>
                <path d="M16.9360465,17.7627907 C16.8541538,17.6363376 16.6897183,17.5925888 16.555814,17.6616279 C16.4094406,17.7348779 16.3501071,17.9128783 16.4232558,18.0593023 L21.1709302,27.4360465 L21.2197674,27.5197674 C21.496498,27.8870412 22.0108603,27.9763266 22.3951786,27.7238009 C22.7794969,27.4712752 22.9016929,26.9637236 22.6744186,26.5639535 L16.9360465,17.7627907 Z" id="Path"></path>
                <path d="M27.4360465,21.1709302 L18.0593023,16.4232558 C17.918677,16.3506776 17.7458402,16.4013225 17.6666246,16.5383188 C17.5874091,16.6753151 17.6297365,16.8503746 17.7627907,16.9360465 L26.5639535,22.6744186 C26.5901464,22.6934728 26.6181955,22.7098347 26.6476744,22.7232558 C27.0782639,22.9409588 27.6038087,22.7683801 27.8215116,22.3377907 C28.0392146,21.9072013 27.866636,21.3816564 27.4360465,21.1639535 L27.4360465,21.1709302 Z" id="Path"></path>
                <path d="M28.855814,14.127907 L18.3627907,14.7034884 C18.1990318,14.7034884 18.0662791,14.8362411 18.0662791,15 C18.0662791,15.1637589 18.1990318,15.2965116 18.3627907,15.2965116 L28.855814,15.872093 L28.9534884,15.872093 C29.435132,15.8460843 29.8044971,15.4345507 29.7784884,14.952907 C29.7524796,14.4712633 29.340946,14.1018982 28.8593023,14.127907 L28.855814,14.127907 Z" id="Path"></path>
                <path d="M17.6616279,13.444186 C17.7348779,13.5905594 17.9128783,13.6498929 18.0593023,13.5767442 L27.4360465,8.82906977 L27.5197674,8.78023256 C27.8870412,8.50350201 27.9763266,7.98913969 27.7238009,7.60482139 C27.4712752,7.22050309 26.9637236,7.0983071 26.5639535,7.3255814 L17.7627907,13.0639535 C17.6363376,13.1458462 17.5925888,13.3102817 17.6616279,13.444186 L17.6616279,13.444186 Z" id="Path"></path>
                <path d="M16.527907,12.3244186 C16.664843,12.4122256 16.8469546,12.3733129 16.9360465,12.2372093 L22.6744186,3.43604651 C22.6934728,3.40985359 22.7098347,3.38180448 22.7232558,3.35232558 C22.9409587,2.92173614 22.7683801,2.39619134 22.3377907,2.1784884 C21.9072012,1.96078547 21.3816564,2.13336406 21.1639535,2.56395349 L16.4232558,11.9406977 C16.3561543,12.0766718 16.4010635,12.2413386 16.527907,12.3244186 Z" id="Path"></path>
            </g>
        </g>
    </g>
</svg>